<svg xmlns="http://www.w3.org/2000/svg" version="1.0" viewBox="25 50 100 100">
  <path d="M33.7 65.2c-2 16.2-2.1 14.5 1.6 15.1 2.2.3 3.9-.1 5.1-1.1 4.5-4 12.6.1 11.2 5.7-1.3 5.4-7.9 6.9-11.8 2.8-1.9-2-2.7-2.2-5.5-1.5-3.2.9-3.3 1-1.9 3.1 5.6 8.5 19.6 8.8 24.7.5 3.4-5.5 2-12.6-3.2-16.2-2.6-1.9-10-2.1-13-.5-2 1.1-2.1.9-1.4-2.1.3-1.8.6-3.6.6-4.1 0-.5 3.8-.9 8.5-.9h8.5v-6H34.3l-.6 5.2zm30.9 0c-2 16.2-2.1 14.5 1.6 15.1 2.2.3 3.9-.1 5.1-1.1 4.5-4 12.6.1 11.2 5.7-1.3 5.4-7.9 6.9-11.8 2.8-1.9-2-2.7-2.2-5.5-1.5-3.2.9-3.3 1-1.9 3.1 5.6 8.5 19.6 8.8 24.7.5 3.4-5.5 2-12.6-3.2-16.2-2.6-1.9-10-2.1-13-.5-2 1.1-2.1.9-1.4-2.1.3-1.8.6-3.6.6-4.1 0-.5 3.8-.9 8.5-.9H88v-6H65.2l-.6 5.2zm30.9 0c-2 16.2-2.1 14.5 1.6 15.1 2.2.3 3.9-.1 5.1-1.1 4.5-4 12.6.1 11.2 5.7-1.3 5.4-7.9 6.9-11.8 2.8-1.9-2-2.7-2.2-5.5-1.5-3.2.9-3.3 1-1.9 3.1 5.6 8.5 19.6 8.8 24.7.5 3.4-5.5 2-12.6-3.2-16.2-2.6-1.9-10-2.1-13-.5-2 1.1-2.1.9-1.4-2.1.3-1.8.6-3.6.6-4.1 0-.5 3.8-.9 8.5-.9h8.5v-6H96.1l-.6 5.2zm-61 46.8c-.1 9.5 0 10 2 10s2.1-.4 1.7-6.5c-.2-3.6-.2-6.5.1-6.5.3 0 2.7 2.9 5.3 6.5 2.8 3.8 5.5 6.5 6.6 6.5 1.6 0 1.8-1 1.8-10 0-9.3-.1-10-2-10-1.7 0-1.9.8-2.2 6.6l-.3 6.7-4.5-6.6c-3-4.4-5.2-6.7-6.5-6.7-1.9 0-2 .7-2 10zm22.5 0v10h7c6.4 0 7-.2 7-2.1 0-1.9-.5-2.1-5-1.7-4.8.3-5 .2-5-2.2 0-2.4.3-2.5 4.5-2.2 4 .4 4.5.2 4.5-1.7 0-1.8-.6-2.1-4.5-2.1-4 0-4.5-.3-4.5-2.3 0-2 .4-2.2 5-1.9 4.5.4 5 .2 5-1.7s-.6-2.1-7-2.1h-7v10zm17-9.3c0 .5 1.3 4.8 2.9 9.8 2.3 7 3.4 9.1 4.9 9.3 1.6.3 2.2-.6 3.2-5 2-8.7 2.6-8.9 4.8-1.8 1.4 4.7 2.5 6.6 3.8 6.8 1.6.2 2.4-1.5 5-9.8l3.2-10h-2.2c-1.9 0-2.5 1-4.1 7.2l-1.9 7.3-2.1-7c-1.6-5.6-2.5-7-4-7-1.6 0-2.2 1.2-3.4 6.2-1.6 6.9-2.5 7.8-3.5 3.5-2.3-9.3-2.7-10.2-4.6-10.2-1.1 0-2 .3-2 .7zm31.7 1.1c-3.6 4-1.8 7.8 4.4 9.6 5.1 1.5 6.4 4.2 2.4 5.2-1.7.4-3.2.1-4.4-1-1.8-1.7-5.1-2.2-5.1-.8 0 .5 1 1.8 2.3 3 3 2.9 8.9 3 11.7.2 3.9-3.9 1.7-8-5-9.7-2.5-.7-3.5-1.5-3.5-2.8 0-2.5 3.1-3.1 5.3-1.1 1.2 1 2.2 1.2 3.2.6 1.2-.7 1.1-1.2-.4-2.9-2.5-2.7-8.6-2.8-10.9-.3zm-16.2 30.7-28 7.4-13.3-5.6c-7.3-3.1-13.5-5.3-13.9-5-1.6 1.7 1.6 3.7 13.8 8.7 7.3 3 13.6 5.4 14 5.3.4-.1 13.4-3.5 28.8-7.4 24-6.2 28.1-7.5 28.1-9.1 0-1-.3-1.8-.7-1.7-.5.1-13.4 3.4-28.8 7.4z"/>
</svg>
